<svg xmlns="http://www.w3.org/2000/svg" width="70" height="70" viewBox="0 0 70 70">
  <g id="Group_2" data-name="Group 2" transform="translate(-52 -5713)">
    <circle id="Ellipse_9" data-name="Ellipse 9" cx="35" cy="35" r="35" transform="translate(52 5713)" fill="#20c19e"/>
    <path id="download" d="M49.2,23.929a.788.788,0,0,0-.87.212,4.408,4.408,0,0,1-5.428.9,8.37,8.37,0,0,1-1.839-1.112,4.308,4.308,0,0,1-1.588-3.648,6.6,6.6,0,0,1,.561-2.227,9.024,9.024,0,0,1,1.037-1.8.2.2,0,0,0,.02-.036.79.79,0,0,0,.007-.9.8.8,0,0,0-.346-.271.772.772,0,0,0-.548-.029,5.455,5.455,0,0,1-1.105.209,5.819,5.819,0,0,1-1.754-.095,4.961,4.961,0,0,1-3.025-1.982,3.705,3.705,0,0,1-.6-3.609,5.1,5.1,0,0,1,.838-1.454,4.068,4.068,0,0,1,.388-.421A.788.788,0,0,0,34.248,6.3a13.877,13.877,0,0,1-1.624.205,7.743,7.743,0,0,1-4.147-.632A4.53,4.53,0,0,1,26.548,3.8a4.854,4.854,0,0,1-.365-2.651.786.786,0,0,0-.655-.932c-.258-.039-.505-.065-.753-.095a18.533,18.533,0,0,0-3.012-.1c-.411.02-.8.059-1.167.1A15.278,15.278,0,0,0,17.533.8,21.963,21.963,0,0,0,13.719,2.3a11.424,11.424,0,0,0-1.451.776c-.14.088-.29.183-.443.284a.859.859,0,0,0,.867,1.386c.016,0,.029-.013.046-.016.14-.095.274-.179.4-.258A10.343,10.343,0,0,1,14.364,3.8l.065-.029A19.87,19.87,0,0,1,16.656,2.8c.183-.068.368-.13.554-.192A19.348,19.348,0,0,1,21.8,1.668a18.314,18.314,0,0,1,2.119-.046c.205.016.408.029.619.052a5.832,5.832,0,0,0,.02.665,6.481,6.481,0,0,0,.205,1.154,16.817,16.817,0,0,0-5.986.378c-.082.02-.166.042-.251.065A17.184,17.184,0,0,0,6.416,25a42.1,42.1,0,0,0,9.34,17.755c.036.039.068.078.1.117.127.14.254.277.381.414.052.055.108.111.16.17,1.027,1.079,2.044,2.041,3.029,2.892.306.261.61.522.919.773H20.34c.212.173.417.336.626.5a23.134,23.134,0,0,1-3.808-.981.249.249,0,0,0-.036-.026c-1.285-.792-3.837-4-4.708-5.174a.832.832,0,0,0-1.333.994c.15.2.825,1.1,1.689,2.135A23.27,23.27,0,0,1,9.937,6.793.789.789,0,0,0,8.926,5.581a24.855,24.855,0,0,0,7.228,42.363c.183.068.368.134.554.2a24.824,24.824,0,0,0,6.833,1.343c.359.02.717.026,1.079.029.078,0,.153.007.228.007.613,0,1.223-.026,1.826-.068a26.092,26.092,0,0,0,2.83-.336c.828-.143,1.646-.326,2.448-.544a25.668,25.668,0,0,0,2.523-.831q1.1-.43,2.148-.962c.691-.349,1.363-.734,2.015-1.144.584-.372,1.148-.769,1.7-1.187s1.079-.864,1.588-1.33c.166-.153.333-.3.5-.456.313-.3.619-.619.913-.939.44-.476.851-.975,1.249-1.483.375-.486.734-.981,1.073-1.493.326-.492.626-1,.913-1.519s.557-1.043.809-1.584a24.7,24.7,0,0,0,1.379-3.8,27.1,27.1,0,0,0,.955-7.169.8.8,0,0,0-.512-.737ZM8,24.581A15.545,15.545,0,0,1,18.961,5.532l.225-.059a15.253,15.253,0,0,1,6.39-.2,6.04,6.04,0,0,0,1.418,1.5,7.086,7.086,0,0,0,.7.469,8.567,8.567,0,0,0,4.375.87c.2,0,.385-.013.567-.026-.059.108-.117.218-.17.333a5.228,5.228,0,0,0,.228,5.122c.108.176.222.355.352.535A6.778,6.778,0,0,0,34.2,15.3a6.7,6.7,0,0,0,3.674,1.49,7.138,7.138,0,0,0,.978.029,9.509,9.509,0,0,0-.544,1.311,7.5,7.5,0,0,0-.4,2.9,5.858,5.858,0,0,0,2.122,4.088c1.617,1.35,5.079,3.038,8.036,1.268a24.125,24.125,0,0,1-2.367,9.07,28.714,28.714,0,0,1-3.091-.587.807.807,0,0,0-.316-.078.886.886,0,0,0-.245.02.843.843,0,0,0-.17,1.578.872.872,0,0,0,.342.088c.939.231,1.826.4,2.644.528-.3.505-.616,1-.955,1.48A24.683,24.683,0,0,1,28.276,29.66,23.466,23.466,0,0,1,23.7,20.473a.813.813,0,1,0-1.6.3,24.629,24.629,0,0,0,4.854,9.842A26.341,26.341,0,0,0,42.8,39.92c-.411.489-.848.958-1.3,1.412a33.033,33.033,0,0,1-4.023-1.216,30.245,30.245,0,0,1-3.365-1.5.871.871,0,0,0-.287-.153.828.828,0,0,0-.447-.013.849.849,0,0,0-.619,1.027.808.808,0,0,0,.238.4.849.849,0,0,0,.411.215,32.057,32.057,0,0,0,3.514,1.562c1.066.4,2.106.72,3.117.994q-.792.655-1.64,1.232c-.316.215-.639.424-.968.623a22.4,22.4,0,0,1-2.934,1.5C24.145,41.9,17.168,33.918,14.286,22.931A9,9,0,0,1,20.634,11.9c.042-.013.088-.023.13-.033a9,9,0,0,1,10.811,6.52,15,15,0,0,0,9.8,10.935c.5.186.985.346,1.467.489.085.026.166.046.248.068a.856.856,0,0,0,.287-.016.829.829,0,0,0,.6-1.007.84.84,0,0,0-.476-.564c-.078-.023-.156-.042-.235-.065-.44-.13-.887-.277-1.337-.443a13.284,13.284,0,0,1-8.783-9.807,10.626,10.626,0,0,0-12.773-7.707l-.153.039a10.632,10.632,0,0,0-7.5,13.031A34.526,34.526,0,0,0,32.289,46.825a24.463,24.463,0,0,1-2.448.623,36.785,36.785,0,0,1-8.913-6.4.911.911,0,0,0-.15-.147.816.816,0,0,0-.7-.153.83.83,0,0,0-.6,1.011.853.853,0,0,0,.137.3c.062.059.124.117.186.179a37.965,37.965,0,0,0,7.365,5.6q-1.144.1-2.315.1c-.212,0-.421-.01-.632-.016A39.179,39.179,0,0,1,8,24.581ZM24.748,35.64a.819.819,0,0,0-.727-.176.831.831,0,0,0-.6,1.011.863.863,0,0,0,.127.277c.055.055.1.114.16.17a31.835,31.835,0,0,0,10.856,7.332l.205.088a.82.82,0,0,0,.417.013.836.836,0,0,0,.228-1.519l-.209-.088A30.24,30.24,0,0,1,24.888,35.79a.87.87,0,0,0-.14-.15Zm-6.494,4.323a.83.83,0,0,0,.6-1.007.867.867,0,0,0-.13-.284.938.938,0,0,0-.072-.088,36.386,36.386,0,0,1-6.243-10.83.861.861,0,0,0-.055-.153.819.819,0,0,0-1.542.522c0,.013,0,.023.007.036a.792.792,0,0,0,.078.2A37.982,37.982,0,0,0,17.36,39.594l.156.186A.827.827,0,0,0,18.254,39.963ZM4.059,26.133a.831.831,0,0,0-.6,1.011c1.223,4.724,2.66,8.646,5.712,12.434a.831.831,0,0,0,1.3-1.04c-2.866-3.557-4.228-7.293-5.4-11.808a.842.842,0,0,0-1.017-.6Zm17.66,2.52a.011.011,0,0,0,0,.007.843.843,0,0,0,.192.352,27.107,27.107,0,0,0,8.173,9.08.843.843,0,0,0,.319.222.856.856,0,0,0,.505.033.847.847,0,0,0,.619-1.024.815.815,0,0,0-.189-.355A.845.845,0,0,0,31,36.728a25.6,25.6,0,0,1-7.632-8.46.041.041,0,0,0,0-.02.862.862,0,0,0-.218-.388.844.844,0,0,0-1.425.792Zm18.065,5.353a.817.817,0,0,0-.375-.147,20.15,20.15,0,0,1-9.722-7.743.8.8,0,0,0-.163-.248.845.845,0,0,0-1.438.779.34.34,0,0,0,.02.052.844.844,0,0,0,.251.385A21.666,21.666,0,0,0,38.9,35.437l.179.072a.834.834,0,0,0,.421.007.847.847,0,0,0,.619-1.024A.815.815,0,0,0,39.784,34.006Zm-16.735-.339a.748.748,0,0,0-.124-.16,31.523,31.523,0,0,1-5.5-11.4c-.01-.033-.013-.062-.02-.095a1.008,1.008,0,0,0-.023-.17.555.555,0,0,0-.029-.078.825.825,0,0,0-1.607.245.817.817,0,0,0,.02.235,1.029,1.029,0,0,0,.065.176c.01.033.013.068.023.1a33.2,33.2,0,0,0,5.767,11.984l.156.205a.822.822,0,0,0,.76.2.834.834,0,0,0,.6-1.011.7.7,0,0,0-.095-.238ZM43.765,31.75a23.739,23.739,0,0,1-2.947-.88,19.959,19.959,0,0,1-2.95-1.376.831.831,0,0,0-.163-.1.811.811,0,0,0-.528-.052.824.824,0,0,0-.6,1,.849.849,0,0,0,.248.417.806.806,0,0,0,.277.166,21.21,21.21,0,0,0,3.153,1.477,25.683,25.683,0,0,0,3.123.942c.075.016.15.036.225.052a.763.763,0,0,0,.271-.016.836.836,0,0,0,.091-1.588ZM27.777,17.676a.843.843,0,0,0,.111.2,5.922,5.922,0,0,1,.544,1.34,18.747,18.747,0,0,0,5.757,9.644.855.855,0,0,0,.316.264.813.813,0,0,0,1.144-.942.846.846,0,0,0-.212-.381c-.055-.046-.111-.088-.163-.137A16.989,16.989,0,0,1,30,18.8a7.526,7.526,0,0,0-.688-1.708c-.046-.082-.085-.166-.134-.245a.821.821,0,0,0-1.441.717,1.1,1.1,0,0,0,.036.111Zm.349,5.572a.041.041,0,0,0,0-.02.83.83,0,0,0-.111-.251,23.7,23.7,0,0,1-1.154-3.348A4.062,4.062,0,1,0,19,21.693a32.546,32.546,0,0,0,1.239,3.785,1.085,1.085,0,0,0,.023.176.832.832,0,0,0,.186.352.842.842,0,0,0,1.461-.73.072.072,0,0,1,0-.026.811.811,0,0,0-.1-.231,30.581,30.581,0,0,1-1.236-3.736A2.454,2.454,0,0,1,22.3,18.273l.036-.01a2.449,2.449,0,0,1,2.947,1.78,25.759,25.759,0,0,0,1.174,3.449,1.083,1.083,0,0,0,.02.143.833.833,0,0,0,.189.355.844.844,0,0,0,1.457-.743Zm-16.9.818c0-.016,0-.036-.007-.052a.7.7,0,0,0-.029-.088c-.016-.055-.033-.111-.049-.17a12.387,12.387,0,0,1,2.23-10.821.731.731,0,0,0,.088-.111.838.838,0,0,0,.127-.675.827.827,0,0,0-.994-.61.791.791,0,0,0-.349.189c-.055.065-.111.13-.163.2A14.077,14.077,0,0,0,9.572,24.17c.016.059.033.114.049.173a.408.408,0,0,0,.01.062.98.98,0,0,0,.036.1.814.814,0,0,0,1.562-.443ZM4.421,16.978a.831.831,0,0,0-.972.659,22.794,22.794,0,0,0-.394,6.129.831.831,0,0,0,.818.688.712.712,0,0,0,.143-.013.829.829,0,0,0,.675-.962,20.873,20.873,0,0,1,.391-5.529.832.832,0,0,0-.662-.972Zm12.473,2.6a.819.819,0,0,0,.551-.466.861.861,0,0,0,.072-.241,5.662,5.662,0,0,1,3.955-3.782.761.761,0,0,0,.082-.023,5.637,5.637,0,0,1,4.313.681c.068.042.13.088.2.13a.817.817,0,0,0,.564.065.837.837,0,0,0,.606-1.017.861.861,0,0,0-.205-.375.852.852,0,0,0-.336-.222c-.033-.02-.062-.042-.095-.062a7.18,7.18,0,0,0-5.546-.779A7.29,7.29,0,0,0,15.985,18.3a.811.811,0,0,0-.121.421.9.9,0,0,0,.02.228A.836.836,0,0,0,16.894,19.573Zm32.524-7.961a3.908,3.908,0,1,0,3.915,3.909,3.91,3.91,0,0,0-3.915-3.909ZM39.243,10.468a1.932,1.932,0,0,0,.975.267,1.974,1.974,0,0,0,.9-.225,1.95,1.95,0,0,0,1.037-1.49,1.892,1.892,0,0,0,.023-.241,1.956,1.956,0,1,0-3.912,0,1.892,1.892,0,0,0,.02.2,1.94,1.94,0,0,0,.962,1.493Zm-23.561.16a.769.769,0,0,0,.192-.078.718.718,0,0,0,.14-.1,12.055,12.055,0,0,1,9.177-1.907.838.838,0,0,0,.179.039.766.766,0,0,0,.284-.016.82.82,0,0,0,.593-1,.822.822,0,0,0-.782-.629,13.524,13.524,0,0,0-5.888.127l-.2.052a13.58,13.58,0,0,0-4.248,1.946.751.751,0,0,0-.205.143.832.832,0,0,0,.76,1.418ZM47.1,5.753a1.932,1.932,0,0,0,.975.267,1.974,1.974,0,0,0,.9-.225A1.95,1.95,0,0,0,50,4.306a1.892,1.892,0,0,0,.023-.241,1.956,1.956,0,0,0-3.912,0,1.891,1.891,0,0,0,.02.2A1.932,1.932,0,0,0,47.1,5.753Z" transform="translate(60 5723)" fill="#fff" fill-rule="evenodd"/>
  </g>
</svg>
