<svg id="Mastercard-logo" xmlns="http://www.w3.org/2000/svg" width="59.231" height="46" viewBox="0 0 59.231 46">
  <path id="XMLID_1775_" d="M57.583,666.117v-3.053a1.79,1.79,0,0,0-1.932-1.932A2,2,0,0,0,53.92,662a1.786,1.786,0,0,0-1.63-.865,1.64,1.64,0,0,0-1.423.711v-.611H49.8v4.885h1.067v-2.7c0-.865.456-1.274,1.168-1.274s1.067.456,1.067,1.274v2.7h1.067v-2.7a1.127,1.127,0,0,1,1.168-1.274c.711,0,1.067.456,1.067,1.274v2.7Zm15.827-4.885H71.68v-1.476H70.613v1.476h-.966v.966h.966v2.241c0,1.12.456,1.778,1.678,1.778a2.868,2.868,0,0,0,1.322-.356l-.308-.919a1.706,1.706,0,0,1-.919.255c-.51,0-.711-.308-.711-.812V662.2H73.4v-.966Zm9.058-.107a1.446,1.446,0,0,0-1.274.711v-.611H80.127v4.885h1.067v-2.751c0-.812.356-1.274,1.02-1.274a3.276,3.276,0,0,1,.664.1l.308-1.02a4.229,4.229,0,0,0-.717-.042Zm-13.687.51a3.5,3.5,0,0,0-1.986-.51c-1.221,0-2.033.611-2.033,1.577,0,.812.611,1.275,1.678,1.423l.51.053c.557.1.865.255.865.51,0,.356-.409.611-1.12.611a2.813,2.813,0,0,1-1.63-.51l-.51.812a3.577,3.577,0,0,0,2.087.611c1.423,0,2.241-.664,2.241-1.577,0-.865-.664-1.322-1.678-1.476l-.51-.053c-.456-.053-.812-.154-.812-.456,0-.356.356-.557.919-.557a3.672,3.672,0,0,1,1.529.409l.451-.865Zm28.388-.51a1.446,1.446,0,0,0-1.274.711v-.611H94.828v4.885h1.067v-2.751c0-.812.356-1.274,1.02-1.274a3.276,3.276,0,0,1,.664.1l.308-1.008a3.251,3.251,0,0,0-.717-.053Zm-13.634,2.549a2.444,2.444,0,0,0,2.6,2.543,2.556,2.556,0,0,0,1.731-.557l-.51-.865a2.038,2.038,0,0,1-1.274.456,1.444,1.444,0,0,1-1.476-1.577,1.5,1.5,0,0,1,1.476-1.577,2.087,2.087,0,0,1,1.274.456l.51-.865a2.526,2.526,0,0,0-1.731-.557,2.441,2.441,0,0,0-2.6,2.543Zm9.87,0v-2.442H92.338v.611a1.843,1.843,0,0,0-1.529-.711,2.545,2.545,0,0,0,0,5.086,1.725,1.725,0,0,0,1.529-.711v.611h1.067v-2.442Zm-3.918,0a1.479,1.479,0,1,1,2.952,0,1.479,1.479,0,1,1-2.952,0Zm-12.769-2.549a2.544,2.544,0,0,0,.053,5.086,3.1,3.1,0,0,0,1.986-.664l-.51-.765a2.423,2.423,0,0,1-1.423.51,1.376,1.376,0,0,1-1.476-1.168h3.61v-.409a2.252,2.252,0,0,0-2.241-2.59Zm0,.919a1.189,1.189,0,0,1,1.221,1.168H75.4a1.286,1.286,0,0,1,1.322-1.168Zm26.509,1.63V659.3h-1.067v2.543a1.843,1.843,0,0,0-1.529-.711,2.545,2.545,0,0,0,0,5.086,1.725,1.725,0,0,0,1.529-.711v.611h1.067v-2.442Zm-3.918,0a1.479,1.479,0,1,1,2.952,0,1.479,1.479,0,1,1-2.952,0Zm-35.721,0v-2.442H62.521v.611a1.843,1.843,0,0,0-1.529-.711,2.545,2.545,0,0,0,0,5.086,1.725,1.725,0,0,0,1.529-.711v.611h1.067v-2.442Zm-3.966,0a1.479,1.479,0,1,1,2.952,0,1.479,1.479,0,1,1-2.952,0Z" transform="translate(-46.848 -620.218)" fill="silver"/>
  <g id="Group_1" data-name="Group 1">
    <rect id="rect19" width="16.029" height="28.797" transform="translate(21.577 3.918)" fill="silver"/>
    <path id="XMLID_330_" d="M22.644,18.317a18.369,18.369,0,0,1,6.971-14.4,18.311,18.311,0,1,0-11.3,32.716,18.219,18.219,0,0,0,11.3-3.918A18.28,18.28,0,0,1,22.644,18.317Z" fill="silver"/>
    <path id="path22" d="M529.216,18.317a18.3,18.3,0,0,1-29.616,14.4,18.356,18.356,0,0,0,0-28.8,18.3,18.3,0,0,1,29.616,14.4Z" transform="translate(-469.984)" fill="silver"/>
  </g>
</svg>
