<svg xmlns="http://www.w3.org/2000/svg" width="65.18" height="39" viewBox="0 0 65.18 39">
  <g id="Page-1" transform="translate(-75 -55.998)">
    <g id="maestro" transform="translate(75 55.998)">
      <path id="Fill-1" d="M355.034,75.5a19.5,19.5,0,1,1-19.5-19.5,19.5,19.5,0,0,1,19.5,19.5" transform="translate(-289.853 -55.998)" fill="silver"/>
      <path id="Fill-2" d="M105.621,87.881a19.365,19.365,0,0,1-1.486-2.065h6.91a19.41,19.41,0,0,0,1.124-2.065h-9.157a19.4,19.4,0,0,1-.825-2.064h10.806a19.64,19.64,0,0,0,.565-10.318H101.623a19.364,19.364,0,0,1,.566-2.065h10.8a19.725,19.725,0,0,0-.825-2.064h-9.153a19.668,19.668,0,0,1,1.123-2.065h6.906a19.7,19.7,0,0,0-1.485-2.063h-3.935a19.66,19.66,0,0,1,1.968-2.064,19.505,19.505,0,1,0,1.97,26.834h-3.94" transform="translate(-75 -55.998)" fill="silver"/>
      <path id="Fill-3" d="M651.074,330.378a.63.63,0,1,1,.63.63.63.63,0,0,1-.63-.63Zm.63.479a.478.478,0,1,0-.479-.479.478.478,0,0,0,.479.479Zm-.086-.2h-.129V330.1h.234a.251.251,0,0,1,.141.028.167.167,0,0,1,.07.138.151.151,0,0,1-.1.143l.1.244H651.8l-.084-.218h-.1v.218Zm0-.313h.071a.165.165,0,0,0,.079-.011.078.078,0,0,0,.033-.064.071.071,0,0,0-.031-.056.174.174,0,0,0-.083-.011h-.069v.142Z" transform="translate(-588.493 -300.009)"/>
      <path id="Fill-4" d="M318.1,217.712a9.472,9.472,0,0,1-2.491.327c-2.718,0-4.133-1.24-4.133-3.607,0-2.766,1.8-4.8,4.248-4.8,2,0,3.278,1.141,3.278,2.927a7.612,7.612,0,0,1-.3,1.988h-4.833c-.172,1.155.672,1.663,2.109,1.663a6.453,6.453,0,0,0,2.5-.5l-.381,2Zm-1.3-4.8c0-.175.269-1.416-1.13-1.443-.772,0-1.326.513-1.55,1.443Z" transform="translate(-285.782 -192.942)"/>
      <path id="Fill-5" d="M379.847,212.377c0,1.022.575,1.727,1.883,2.253,1,.41,1.157.528,1.157.893,0,.507-.442.739-1.422.733a8.094,8.094,0,0,1-2.2-.315l-.351,1.864a14.037,14.037,0,0,0,2.569.238c2.61,0,3.815-.855,3.815-2.7a2.23,2.23,0,0,0-1.742-2.25c-1.036-.414-1.158-.5-1.158-.878,0-.44.411-.663,1.211-.663a16.131,16.131,0,0,1,1.779.12l.354-1.873a19.061,19.061,0,0,0-2.181-.161c-2.765,0-3.721,1.245-3.713,2.741" transform="translate(-345.897 -192.946)"/>
      <path id="Fill-6" d="M243.75,217.906h-2.027l.048-.85a3.253,3.253,0,0,1-2.559.982,2.114,2.114,0,0,1-2.229-2.2c0-1.977,1.575-3.117,4.283-3.117a9.444,9.444,0,0,1,1,.061,1.746,1.746,0,0,0,.1-.522c0-.541-.426-.74-1.566-.74a9.356,9.356,0,0,0-2.585.36l.346-1.814a11.076,11.076,0,0,1,2.914-.428c2.1,0,3.2.822,3.2,2.368a9.107,9.107,0,0,1-.2,1.6c-.082.527-.664,3.582-.724,4.3Zm-1.779-3.606a4.631,4.631,0,0,0-.545-.034c-1.383,0-2.084.411-2.084,1.224a.8.8,0,0,0,.875.829,1.866,1.866,0,0,0,1.753-2.019Z" transform="translate(-219.386 -192.943)"/>
      <path id="Fill-7" d="M446.907,203.428a6.3,6.3,0,0,1-1.745.262c-1.242,0-1.92-.635-1.92-1.765a16.944,16.944,0,0,1,.333-2.144c.069-.4,1.145-6.246,1.145-6.246h2.413l-.365,1.934h1.238l-.336,1.974h-1.243s-.682,3.425-.682,3.686c0,.416.252.6.829.6a2.326,2.326,0,0,0,.655-.075l-.321,1.778" transform="translate(-403.235 -178.594)"/>
      <path id="Fill-8" d="M494.128,209.521a4.536,4.536,0,0,0-3.953,1.944l.7-1.8c-1.284-.471-2.111.2-2.86,1.157,0,0-.125.159-.25.3v-1.418H485.5c-.307,2.5-.85,5.038-1.274,7.544l-.1.545h2.438c.231-1.272.421-2.3.61-3.127.518-2.258,1.389-2.948,2.7-2.643a5.265,5.265,0,0,0-.468,2.233c0,2.018,1.1,3.671,3.818,3.671,2.747,0,4.736-1.468,4.736-4.813a3.473,3.473,0,0,0-3.823-3.593Zm-.709,6.444c-.861.014-1.383-.709-1.383-1.789,0-1.281.762-2.728,1.985-2.728.987,0,1.325.783,1.325,1.616,0,1.823-.747,2.9-1.928,2.9Z" transform="translate(-439.676 -192.831)"/>
      <path id="Fill-9" d="M139.785,204.683h-2.427l1.443-7.6-3.321,7.6h-2.212l-.4-7.555-1.447,7.555h-2.2l1.876-9.885h3.793l.316,5.511,2.4-5.511h4.1l-1.913,9.885" transform="translate(-123.324 -179.72)"/>
      <path id="Fill-10" d="M613.15,269.22a.63.63,0,1,1,.63.631.63.63,0,0,1-.63-.631Zm.63.479a.479.479,0,1,0-.479-.479.479.479,0,0,0,.479.479Zm-.085-.2h-.129v-.552h.234a.255.255,0,0,1,.142.027.168.168,0,0,1,.07.138.151.151,0,0,1-.1.143l.1.244h-.143l-.084-.218h-.1v.218Zm0-.314h.072a.169.169,0,0,0,.079-.011.076.076,0,0,0,.032-.064.069.069,0,0,0-.031-.056.168.168,0,0,0-.083-.01h-.069v.14Z" transform="translate(-554.689 -245.495)" fill="#fff"/>
      <path id="Fill-11" d="M323.707,212.1a9.464,9.464,0,0,1-2.49.327c-2.718,0-4.133-1.241-4.133-3.608,0-2.765,1.8-4.8,4.247-4.8,2,0,3.278,1.14,3.278,2.927a7.646,7.646,0,0,1-.3,1.988h-4.833c-.172,1.155.671,1.663,2.108,1.663a6.45,6.45,0,0,0,2.5-.5l-.381,2Zm-1.3-4.8c0-.174.269-1.416-1.13-1.443-.772,0-1.326.514-1.55,1.443Z" transform="translate(-290.785 -187.942)" fill="#fff"/>
      <path id="Fill-12" d="M385.452,206.768c0,1.022.574,1.727,1.882,2.254,1,.409,1.157.528,1.157.892,0,.507-.442.74-1.422.733a8.077,8.077,0,0,1-2.2-.315l-.352,1.863a13.917,13.917,0,0,0,2.57.239c2.61,0,3.815-.855,3.815-2.7a2.23,2.23,0,0,0-1.743-2.25c-1.036-.414-1.157-.5-1.157-.878,0-.44.411-.663,1.211-.663a16.121,16.121,0,0,1,1.78.121l.353-1.874a19.055,19.055,0,0,0-2.18-.161c-2.766,0-3.722,1.244-3.714,2.74" transform="translate(-350.892 -187.947)" fill="#fff"/>
      <path id="Fill-13" d="M249.358,212.3h-2.028l.049-.85a3.258,3.258,0,0,1-2.559.981,2.114,2.114,0,0,1-2.229-2.2c0-1.978,1.575-3.117,4.283-3.117a9.466,9.466,0,0,1,1,.061,1.739,1.739,0,0,0,.1-.522c0-.541-.426-.74-1.565-.74a9.372,9.372,0,0,0-2.585.36l.346-1.814a11.064,11.064,0,0,1,2.915-.429c2.1,0,3.2.822,3.2,2.367a9.162,9.162,0,0,1-.2,1.6c-.083.527-.664,3.582-.724,4.3Zm-1.78-3.606a4.547,4.547,0,0,0-.545-.034c-1.382,0-2.084.412-2.084,1.224a.8.8,0,0,0,.875.829,1.865,1.865,0,0,0,1.753-2.019Z" transform="translate(-224.385 -187.943)" fill="#fff"/>
      <path id="Fill-14" d="M452.518,197.821a6.312,6.312,0,0,1-1.744.262c-1.242,0-1.92-.635-1.92-1.766a16.931,16.931,0,0,1,.333-2.144c.069-.4,1.145-6.246,1.145-6.246h2.413l-.364,1.934h1.238l-.336,1.974h-1.243s-.683,3.425-.683,3.686c0,.416.252.6.829.6a2.3,2.3,0,0,0,.655-.075l-.322,1.78" transform="translate(-408.238 -173.595)" fill="#fff"/>
      <path id="Fill-15" d="M544.262,207.566c0,1.822-.747,2.9-1.929,2.9-.86.012-1.382-.709-1.382-1.79,0-1.281.761-2.728,1.985-2.728.988,0,1.326.784,1.326,1.616Zm2.6.051a3.474,3.474,0,0,0-3.823-3.594,4.464,4.464,0,0,0-4.731,4.736c0,2.018,1.1,3.671,3.818,3.671,2.747,0,4.736-1.468,4.736-4.813Z" transform="translate(-487.981 -187.942)" fill="#fff"/>
      <path id="Fill-16" d="M491.105,204.99c-.306,2.5-.849,5.038-1.273,7.545l-.1.545h2.437c.879-4.841,1.173-6.22,3.014-5.734l.885-2.291c-1.284-.471-2.11.2-2.858,1.158a5.628,5.628,0,0,0,.164-1.223h-2.266" transform="translate(-444.675 -188.725)" fill="#fff"/>
      <path id="Fill-17" d="M145.393,199.075h-2.427l1.442-7.6-3.321,7.6h-2.212l-.4-7.556-1.447,7.556h-2.2l1.875-9.886h3.794l.2,6.12,2.67-6.12h3.946l-1.913,9.886" transform="translate(-128.322 -174.72)" fill="#fff"/>
    </g>
  </g>
</svg>
