<svg xmlns="http://www.w3.org/2000/svg" width="75" height="31.658" viewBox="0 0 75 31.658">
  <g id="paypal-logo-svgrepo-com" transform="translate(9 -18.38)">
    <g id="Layer_1_copy_5_" transform="translate(-9 18.38)">
      <path id="Path_1" data-name="Path 1" d="M13.443,23.537a4.563,4.563,0,0,0-1.116-1.877,4.277,4.277,0,0,0-1.775-1.016,9.457,9.457,0,0,0-2.412-.3l-4.266,0c-.443.009-.878.548-.982,1.216L.022,41.06c-.1.659.174,1.211.617,1.211H2.683c.443,0,.882-.536.981-1.211l.7-4.733c.094-.659.531-1.209.979-1.209h.585a7.323,7.323,0,0,0,5.822-2.394,9.246,9.246,0,0,0,2.086-6.317A8.785,8.785,0,0,0,13.443,23.537ZM9.038,29.906a3.249,3.249,0,0,1-2.583,1.058h-.5c-.445,0-.717-.548-.62-1.216l.615-4.139c.086-.664.534-1.213.973-1.209l.67-.007a2.386,2.386,0,0,1,1.777.619,2.633,2.633,0,0,1,.589,1.9A4.352,4.352,0,0,1,9.038,29.906Zm28.083-2.545L28.982,48.822c-.262.67-.841,1.211-1.281,1.211l-2.116,0c-.439,0-.583-.545-.315-1.213l1.809-4.914a4.99,4.99,0,0,0,.016-1.886c-.278-2.9-1.668-15.233-1.668-15.233-.1-.668.171-1.216.612-1.216l1.83,0c.561,0,1.012.575,1.113,1.248l.911,8.554.339.007c.284-.786,3.209-8.614,3.209-8.614.28-.661.845-1.216,1.286-1.216,0,0,1.966.009,2.449,0C37.9,25.525,37.121,27.361,37.121,27.361Zm13.42-3.751a4.734,4.734,0,0,0-1.125-1.884,4.106,4.106,0,0,0-1.775-1.016,9.155,9.155,0,0,0-2.4-.292l-4.272,0c-.445.012-.872.55-.975,1.211l-2.873,19.5c-.1.661.182,1.209.616,1.209l2.046,0c.434,0,.879-.538.982-1.206l.692-4.735c.1-.659.54-1.213.982-1.209h.585A7.355,7.355,0,0,0,48.856,32.8a9.372,9.372,0,0,0,2.077-6.327A9.22,9.22,0,0,0,50.54,23.609Zm-4.406,6.378a3.279,3.279,0,0,1-2.577,1.044h-.509c-.439.007-.723-.55-.625-1.213l.619-4.132c.091-.661.534-1.216.976-1.209l.662-.007a2.411,2.411,0,0,1,1.777.617,2.652,2.652,0,0,1,.594,1.9A4.423,4.423,0,0,1,46.135,29.987ZM23.293,26.324a5.445,5.445,0,0,0-3.651-1.016,10.5,10.5,0,0,0-2.471.3,8.188,8.188,0,0,0-1.047.3c-.777.264-.9,1.473-.9,1.473l-.25,1.6c-.141,1.023.237.984.394.9a8.052,8.052,0,0,1,1.222-.561,5.847,5.847,0,0,1,1.913-.4,3.426,3.426,0,0,1,1.858.408,1.616,1.616,0,0,1,.616,1.448l-.036.45-.295.283a22.527,22.527,0,0,0-3.013.51,6.973,6.973,0,0,0-2.59,1.111,4.988,4.988,0,0,0-1.759,2.162,8.5,8.5,0,0,0-.585,3.331,5.172,5.172,0,0,0,.832,3.025A2.543,2.543,0,0,0,15.686,42.8a3.86,3.86,0,0,0,1.283-.186l.989-.531.838-.724.771-.793.01.023-.077.51,0,.021v0c-.083.622.158,1.132.546,1.192l.007.014h1.9l.027-.019a1.369,1.369,0,0,0,.879-1.192l1.489-10.052.077-.819.036-.768A3.962,3.962,0,0,0,23.293,26.324ZM20,37.626l-.318.654-.8.647a2.028,2.028,0,0,1-1.068.36,1.734,1.734,0,0,1-1.164-.346l-.394-1.195a3.382,3.382,0,0,1,.3-1.554l.866-.919a5.333,5.333,0,0,1,1.347-.473c.467-.09,1.39-.255,1.51-.26l.141.387C20.387,35.149,20.126,36.856,20,37.626ZM71.008,19.264h.683V19.7h-.683V21.12l0,.383.049.255.107.162.21.051.171-.037.128-.06h.018v.466l-.207.063-.195.026-.464-.26-.158-.817V19.7h-.229v-.438h.229V18.38h.338v.884ZM60.4,26.337a5.456,5.456,0,0,0-3.65-1.018,10.132,10.132,0,0,0-2.47.306,7.767,7.767,0,0,0-1.052.295c-.775.262-.9,1.475-.9,1.475L52.08,29c-.14,1.023.229.977.4.9a9.205,9.205,0,0,1,1.211-.564,6.1,6.1,0,0,1,1.918-.4,3.411,3.411,0,0,1,1.854.411,1.612,1.612,0,0,1,.616,1.445l-.031.448-.292.29a21.311,21.311,0,0,0-3.016.506,6.974,6.974,0,0,0-2.592,1.111,4.991,4.991,0,0,0-1.759,2.167,8.387,8.387,0,0,0-.586,3.318,5.1,5.1,0,0,0,.836,3.03,2.552,2.552,0,0,0,2.149,1.153,3.743,3.743,0,0,0,1.281-.188l.986-.524.845-.724.765-.8.013.026-.07.515-.007.009,0,.009c-.092.622.15,1.137.543,1.192l0,.012h1.9l.031-.016a1.369,1.369,0,0,0,.869-1.2l1.494-10.038.079-.824.043-.77A3.945,3.945,0,0,0,60.4,26.337Zm-3.287,11.3-.332.661-.8.643a2.051,2.051,0,0,1-1.064.36,1.688,1.688,0,0,1-1.162-.348l-.4-1.19a3.546,3.546,0,0,1,.292-1.559,2.348,2.348,0,0,1,.875-.916,5.4,5.4,0,0,1,1.345-.471c.464-.09,1.384-.26,1.5-.262l.144.387C57.5,35.165,57.233,36.865,57.111,37.64ZM68.058,21.788l.006,0L65.329,41.118l-.1.232c-.159.543-.509.984-.881.984h-1.9l-.031-.067c-.363-.086-.6-.536-.513-1.132l0-.014.083-.557,2.558-18.128.092-.631.1-.246c.165-.534.5-.967.878-.967h1.83C67.884,20.582,68.151,21.122,68.058,21.788Zm6.786-2.3.156.865v2.011h-.333V20.6l-.022-.378-.042-.3-.119-.179-.219-.063-.28.109-.283.281.006.151.006.165v1.981h-.332v-1.77l-.016-.383-.049-.3-.112-.179-.226-.063-.277.107-.278.269v2.313h-.33v-3.1h.332v.343l.314-.316.332-.114.345.128.213.369L74,19.289l.36-.114Z" transform="translate(0 -18.38)" fill="silver"/>
    </g>
  </g>
</svg>
