<svg xmlns="http://www.w3.org/2000/svg" width="72" height="33.086" viewBox="0 0 72 33.086">
  <g id="visa-electron-svgrepo-com" transform="translate(-5.095 -13.179)">
    <path id="Path_2" data-name="Path 2" d="M27.723,34.58H21.89l3.648-21.147H31.37Z" transform="translate(8.573 0.13)" fill="silver"/>
    <path id="Path_3" data-name="Path 3" d="M45.662,14.079a15.217,15.217,0,0,0-5.231-.9c-5.76,0-9.816,2.879-9.841,7-.048,3.037,2.9,4.724,5.112,5.737,2.256,1.035,3.024,1.71,3.024,2.633-.023,1.417-1.823,2.07-3.5,2.07a12.257,12.257,0,0,1-5.472-1.125l-.768-.338L28.167,33.9a18.8,18.8,0,0,0,6.5,1.126c6.12,0,10.1-2.835,10.151-7.222.023-2.407-1.535-4.252-4.9-5.759-2.04-.968-3.289-1.62-3.289-2.61.024-.9,1.057-1.822,3.359-1.822a10.475,10.475,0,0,1,4.345.81l.527.225.793-4.566Z" transform="translate(11.776 0)" fill="silver"/>
    <path id="Path_4" data-name="Path 4" d="M50.62,13.432h4.511l4.705,21.147h-5.4s-.529-2.43-.7-3.172H46.252c-.216.562-1.224,3.172-1.224,3.172h-6.12l8.663-19.392A2.9,2.9,0,0,1,50.62,13.432Zm-.359,7.739s-1.848,4.7-2.329,5.917H52.78c-.24-1.057-1.344-6.119-1.344-6.119l-.408-1.822c-.172.469-.42,1.114-.587,1.549C50.327,20.991,50.25,21.189,50.26,21.171Z" transform="translate(17.259 0.13)" fill="silver" fill-rule="evenodd"/>
    <path id="Path_5" data-name="Path 5" d="M5.191,13.432h9.384c1.272.045,2.3.427,2.64,1.778l2.039,9.716v0l.624,2.924,5.712-14.42h6.167L22.591,34.557H16.423l-5.2-18.375A24.7,24.7,0,0,0,5.1,13.86Z" transform="translate(0 0.13)" fill="silver" fill-rule="evenodd"/>
    <path id="Path_6" data-name="Path 6" d="M35.625,37.65a1.709,1.709,0,0,1-.3.021.81.81,0,0,1-.708-.3,1.485,1.485,0,0,1-.211-.867V30.016h.867v6.555a.454.454,0,0,0,.074.3.221.221,0,0,0,.169.085H35.6a.452.452,0,0,0,.111-.021l.116.656A.745.745,0,0,1,35.625,37.65Zm-2.6-.856v.751h-4.1V30.608h4v.74H29.8v2.178h2.633v.751H29.8v2.516Zm6.164.878a2.608,2.608,0,0,0,.941-.159,4.379,4.379,0,0,0,.751-.37l-.307-.571a3.019,3.019,0,0,1-.6.291,2.021,2.021,0,0,1-.682.111,1.585,1.585,0,0,1-1.2-.481,2.006,2.006,0,0,1-.513-1.306h3.468a1.3,1.3,0,0,0,.026-.227q.005-.132.005-.27a3.352,3.352,0,0,0-.137-.994,2.233,2.233,0,0,0-.4-.761,1.7,1.7,0,0,0-.645-.486,2.151,2.151,0,0,0-.872-.169,2.069,2.069,0,0,0-.856.185,2.248,2.248,0,0,0-.735.534,2.659,2.659,0,0,0-.518.851,3.113,3.113,0,0,0-.2,1.137,3.146,3.146,0,0,0,.19,1.131,2.449,2.449,0,0,0,.523.841,2.294,2.294,0,0,0,.782.529A2.514,2.514,0,0,0,39.188,37.671Zm-1.618-3.108H40.32a1.84,1.84,0,0,0-.333-1.189,1.141,1.141,0,0,0-.936-.407,1.322,1.322,0,0,0-.523.106,1.378,1.378,0,0,0-.449.312,1.707,1.707,0,0,0-.333.5A2.271,2.271,0,0,0,37.571,34.562Zm6.809,3.108a2.307,2.307,0,0,0,.888-.174,2.753,2.753,0,0,0,.772-.481l-.381-.582a2.675,2.675,0,0,1-.545.365,1.435,1.435,0,0,1-.661.153,1.466,1.466,0,0,1-.645-.143,1.426,1.426,0,0,1-.5-.4,1.94,1.94,0,0,1-.322-.619,2.6,2.6,0,0,1-.116-.8,2.545,2.545,0,0,1,.122-.809,2.02,2.02,0,0,1,.333-.629,1.449,1.449,0,0,1,.508-.407A1.466,1.466,0,0,1,44.475,33a1.2,1.2,0,0,1,.555.127,2.173,2.173,0,0,1,.47.328l.444-.571a2.924,2.924,0,0,0-.634-.423,1.922,1.922,0,0,0-.867-.18,2.525,2.525,0,0,0-.946.18,2.249,2.249,0,0,0-.788.529,2.586,2.586,0,0,0-.539.851,3.069,3.069,0,0,0-.2,1.147,3.271,3.271,0,0,0,.185,1.137,2.463,2.463,0,0,0,.508.846,2.136,2.136,0,0,0,.767.523A2.513,2.513,0,0,0,44.38,37.671Zm4.795-.058a2.15,2.15,0,0,1-.492.058,1.677,1.677,0,0,1-.693-.127,1.191,1.191,0,0,1-.455-.349,1.36,1.36,0,0,1-.248-.539,3.069,3.069,0,0,1-.074-.7V33.114h-.761v-.656l.8-.053.106-1.438h.73v1.438h1.385v.708H48.091v2.855a1.309,1.309,0,0,0,.174.735.691.691,0,0,0,.619.259,1.15,1.15,0,0,0,.3-.042,2.271,2.271,0,0,0,.285-.1l.169.656A4.489,4.489,0,0,1,49.175,37.613Zm2.331-.069v-3.3a2.1,2.1,0,0,1,.619-.92,1.151,1.151,0,0,1,.682-.264,1.385,1.385,0,0,1,.264.021,1.935,1.935,0,0,1,.233.063l.169-.761a1.365,1.365,0,0,0-.55-.106,1.325,1.325,0,0,0-.819.285,2.374,2.374,0,0,0-.64.772h-.032l-.074-.93h-.719v5.138Zm5.6-.053a2.363,2.363,0,0,1-1.808,0,2.226,2.226,0,0,1-.756-.523,2.546,2.546,0,0,1-.523-.846,3.113,3.113,0,0,1-.2-1.137,3.145,3.145,0,0,1,.2-1.147,2.607,2.607,0,0,1,.523-.851,2.193,2.193,0,0,1,.756-.529,2.363,2.363,0,0,1,1.808,0,2.193,2.193,0,0,1,.756.529,2.607,2.607,0,0,1,.523.851,3.145,3.145,0,0,1,.2,1.147,3.113,3.113,0,0,1-.2,1.137,2.546,2.546,0,0,1-.523.846A2.226,2.226,0,0,1,57.1,37.491Zm-.9-.539a1.288,1.288,0,0,1-.6-.143,1.386,1.386,0,0,1-.47-.4,1.911,1.911,0,0,1-.3-.619,2.843,2.843,0,0,1-.106-.8,2.9,2.9,0,0,1,.106-.809,1.97,1.97,0,0,1,.3-.629,1.363,1.363,0,0,1,.47-.407,1.344,1.344,0,0,1,1.205,0,1.363,1.363,0,0,1,.47.407,1.97,1.97,0,0,1,.3.629,2.9,2.9,0,0,1,.106.809,2.842,2.842,0,0,1-.106.8,1.911,1.911,0,0,1-.3.619,1.386,1.386,0,0,1-.47.4A1.288,1.288,0,0,1,56.2,36.952Zm4.6-3.13v3.722h-.867V32.405h.719l.074.74h.032a4.187,4.187,0,0,1,.777-.619,1.779,1.779,0,0,1,.946-.248,1.381,1.381,0,0,1,1.189.508,2.508,2.508,0,0,1,.375,1.5v3.256h-.867V34.4a1.836,1.836,0,0,0-.233-1.052.851.851,0,0,0-.74-.322,1.263,1.263,0,0,0-.708.2A4.6,4.6,0,0,0,60.8,33.822Z" transform="translate(12.162 8.594)" fill="silver" fill-rule="evenodd"/>
  </g>
</svg>
