<svg xmlns="http://www.w3.org/2000/svg" width="80" height="25.831" viewBox="0 0 80 25.831">
  <path id="visa-svgrepo-com" d="M40.615,11.619,35.272,36.6H28.806l5.351-24.985Zm27.2,16.132,3.4-9.384,1.961,9.384Zm7.21,8.853H81L75.787,11.619H70.241a2.945,2.945,0,0,0-2.718,1.814l-.008.019L57.819,36.6H64.6l1.35-3.734h8.293ZM58.153,28.448c.027-6.6-9.12-6.959-9.056-9.907.021-.9.872-1.851,2.739-2.094.347-.035.747-.056,1.152-.056A12.138,12.138,0,0,1,58.283,17.6l-.072-.032,1.134-5.3a17.027,17.027,0,0,0-6.044-1.11h0c-6.391,0-10.886,3.4-10.926,8.264-.04,3.6,3.209,5.6,5.66,6.8,2.521,1.224,3.366,2.011,3.353,3.1-.016,1.68-2.006,2.417-3.868,2.446-.085,0-.189,0-.291,0a13.462,13.462,0,0,1-6.42-1.616l.072.035L39.708,35.66a19.147,19.147,0,0,0,7.071,1.326h.115c6.791,0,11.232-3.353,11.256-8.546ZM31.377,11.619,20.905,36.6H14.071L8.918,16.66A2.741,2.741,0,0,0,7.4,14.473l-.016-.008a26.332,26.332,0,0,0-6.2-2.1L1,12.339l.155-.723h11a3.015,3.015,0,0,1,2.974,2.529l0,.016,2.723,14.46,6.727-17.007Z" transform="translate(-1.004 -11.155)" fill="silver"/>
</svg>
